name C:\Users\tom_v\MusculoskeletalSpecialization_revisited\Results\Case_13\motion.mot
datacolumns 32
datarows 13
range 0.14182479 0.20990069
endheader 
time	pelvis_tilt	pelvis_list	pelvis_rotation	pelvis_tx	pelvis_ty	pelvis_tz	hip_flexion_r	hip_adduction_r	hip_rotation_r	knee_angle_r	ankle_angle_r	subtalar_angle_r	mtp_angle_r	hip_flexion_l	hip_adduction_l	hip_rotation_l	knee_angle_l	ankle_angle_l	subtalar_angle_l	mtp_angle_l	lumbar_extension	lumbar_bending	lumbar_rotation	arm_flex_r	arm_add_r	arm_rot_r	elbow_flex_r	arm_flex_l	arm_add_l	arm_rot_l	elbow_flex_l	
          0.14182479	        -11.82780381	          2.01894390	          0.13476190	          0.46001316	          0.88922368	          0.00594122	         13.14800438	          4.24358025	          7.28416682	        -39.42765454	         12.14750961	         -4.14151228	         44.30623181	         39.79635338	          2.18785569	         -4.26322868	        -76.16064707	         12.23819162	          3.33852050	          2.79042077	         -1.70364181	         -1.92848628	          2.50796930	         17.16548191	          0.79488671	          9.92388820	          0.58495379	         -8.06220061	         -7.88370426	          2.94779552	         73.01399762	
          0.14749778	        -11.86806097	          2.27956541	          0.08489362	          0.47878376	          0.89129424	          0.00597480	         11.53504814	          3.67029712	          7.02569176	        -38.30266739	         10.68333433	         -3.47075146	         46.03102327	         41.10189831	          2.47283608	         -4.45238102	        -75.34987429	         12.36639204	          2.79836335	          2.58881521	         -1.72480811	         -2.36454855	          2.73058428	         17.25594069	          0.85145489	          9.87347410	          0.27342517	         -8.66618930	         -7.97213150	          2.61708855	         74.86134973	
          0.15317078	        -11.90517046	          2.52346564	          0.04052630	          0.49765671	          0.89326724	          0.00598751	          9.93970054	          3.11312278	          6.76290472	        -37.21592613	          9.23571324	         -2.72061570	         47.41503878	         42.33759962	          2.74266047	         -4.60350895	        -74.39360178	         12.35356974	          2.27910832	          2.40339649	         -1.73534598	         -2.78248926	          2.94634591	         17.28096206	          0.88431666	          9.87959182	          0.09614021	         -9.22097829	         -8.04471089	          2.31698864	         76.53964905	
          0.15884377	        -11.93883212	          2.74630161	          0.00078062	          0.51661208	          0.89512013	          0.00598443	          8.38815554	          2.58073247	          6.50124552	        -36.21827800	          7.81970048	         -1.89519928	         48.40671915	         43.50182133	          2.99451206	         -4.71155297	        -73.29451225	         12.20275003	          1.77738938	          2.23145719	         -1.73732373	         -3.17697237	          3.15353173	         17.25715641	          0.89923860	          9.95043334	          0.01551854	         -9.72535787	         -8.10216246	          2.04514764	         78.04944043	
          0.16451676	        -11.96885317	          2.94670447	         -0.03434343	          0.53563600	          0.89683867	          0.00597061	          6.89917924	          2.07917833	          6.24683914	        -35.33924476	          6.40756328	         -1.02062339	         49.04862073	         44.59333571	          3.22822298	         -4.77424140	        -72.05886774	         11.91946827	          1.29133675	          2.07113666	         -1.73234264	         -3.54666479	          3.35035112	         17.19765199	          0.90153445	         10.08860933	          0.00051602	        -10.17794323	         -8.14603333	          1.80057751	         79.38992925	
          0.17018975	        -11.99503567	          3.12475182	         -0.06468932	          0.55471875	          0.89841177	          0.00594840	          5.48352567	          1.60944601	          5.99982716	        -34.59044517	          4.97568903	         -0.11373734	         49.39417833	         45.61149861	          3.44545039	         -4.78946776	        -70.69558090	         11.51238744	          0.81902155	          1.92091721	         -1.72183097	         -3.89181350	          3.53579064	         17.11253831	          0.89524550	         10.29221776	          0.02646314	        -10.57730649	         -8.17786836	          1.58352137	         80.56012584	
          0.17586274	        -12.01751897	          3.27922088	         -0.09091863	          0.57384573	          0.89982992	          0.00591764	          4.15130241	          1.17215843	          5.75867740	        -33.98153625	          3.51312004	          0.82038189	         49.47782103	         46.55657950	          3.64620000	         -4.75588554	        -69.21335032	         10.99220315	          0.35912578	          1.77986758	         -1.70814752	         -4.21037692	          3.70932623	         17.01112235	          0.88287910	         10.55630249	          0.07407312	        -10.92181189	         -8.19829106	          1.39437281	         81.55960390	
          0.18153573	        -12.03631240	          3.40974130	         -0.11417934	          0.59300388	          0.90108681	          0.00587685	          2.91178414	          0.76685375	          5.52524893	        -33.52172043	          2.01544237	          1.78048611	         49.31989739	         47.42483114	          3.83074764	         -4.67545974	        -67.61378606	         10.37158777	         -0.08988508	          1.64770288	         -1.69375487	         -4.50071135	          3.86966859	         16.90157732	          0.86662684	         10.87336841	          0.12840524	        -11.21079842	         -8.20772681	          1.23287356	         82.38809470	
          0.18720873	        -12.05152041	          3.51619613	         -0.13667838	          0.61218420	          0.90218107	          0.00582378	          1.77393957	          0.39299283	          5.30628022	        -33.21789191	          0.47478632	          2.76312011	         48.93877874	         48.20539030	          3.99987318	         -4.55004412	        -65.88638708	          9.66275393	         -0.52769869	          1.52514987	         -1.68036069	         -4.76078115	          4.01542143	         16.79071253	          0.84833868	         11.23425089	          0.17799693	        -11.44465681	         -8.20602602	          1.09802576	         83.04418294	
          0.19288172	        -12.06337482	          3.59771462	         -0.16172853	          0.63137724	          0.90311577	          0.00575417	          0.74576702	          0.04904481	          5.10576053	        -33.07168967	         -1.11851350	          3.76933832	         48.35216425	         48.88317665	          4.15285181	         -4.38261160	        -64.01357430	          8.87290345	         -0.95474529	          1.41225001	         -1.66991525	         -4.98674231	          4.14526353	         16.68461990	          0.82896618	         11.62957135	          0.21501491	        -11.62426066	         -8.19195165	          0.98808719	         83.52569255	
          0.19855471	        -12.07196110	          3.65459592	         -0.19297526	          0.65057483	          0.90389450	          0.00566392	         -0.16148206	         -0.26693347	          4.92954841	        -33.09343948	         -2.76865519	          4.79971276	         47.55924712	         49.44092489	          4.29154103	         -4.17301595	        -61.98103101	          8.01109901	         -1.37097544	          1.30858468	         -1.66405763	         -5.17611018	          4.25767743	         16.58848654	          0.80944344	         12.05048933	          0.23421985	        -11.75108048	         -8.16428814	          0.90068966	         83.83104234	
          0.20422770	        -12.07712546	          3.68740648	         -0.23296998	          0.66977454	          0.90451694	          0.00555099	         -0.93608287	         -0.55669801	          4.77696079	        -33.29489721	         -4.48301988	          5.84923574	         46.55602027	         49.86432126	          4.41855632	         -3.92101005	        -59.79192093	          7.09198311	         -1.77572670	          1.21326294	         -1.66312900	         -5.32775462	          4.35137511	         16.50499093	          0.79056142	         12.48836031	          0.23347784	        -11.82679801	         -8.12255371	          0.83411749	         83.95966608	
          0.20990069	        -12.07843170	          3.69749080	         -0.28268745	          0.68898307	          0.90497925	          0.00541367	         -1.57123179	         -0.82210578	          4.64611286	        -33.67847271	         -6.27713665	          6.90612391	         45.34456311	         50.14288501	          4.53768441	         -3.62798420	        -57.46399126	          6.13524454	         -2.16957256	          1.12587024	         -1.66581662	         -5.44228750	          4.42544790	         16.43358097	          0.77274864	         12.93520675	          0.21376978	        -11.85322463	         -8.06705401	          0.78780827	         83.91129824	
